<?xml version="1.0" standalone="no"?>
<!DOCTYPE svg PUBLIC "-//W3C//DTD SVG 20010904//EN"
 "http://www.w3.org/TR/2001/REC-SVG-20010904/DTD/svg10.dtd">
<svg version="1.0" xmlns="http://www.w3.org/2000/svg"
 width="1606.000000pt" height="275.000000pt" viewBox="0 0 1606.000000 275.000000"
 preserveAspectRatio="xMidYMid meet">
<metadata>
Created by potrace 1.15, written by Peter Selinger 2001-2017
</metadata>
<g transform="translate(0.000000,275.000000) scale(0.100000,-0.100000)"
fill="#000000" stroke="none">
<path d="M890 2745 c0 -3 207 -333 461 -734 l461 -729 251 110 c139 61 260
112 270 115 9 3 17 10 17 15 0 5 -194 284 -431 619 l-430 609 -300 0 c-164 0
-299 -2 -299 -5z"/>
<path d="M895 2549 c-3 -8 -171 -457 -375 -998 -203 -542 -368 -986 -367 -987
2 -2 746 322 752 327 4 5 365 1074 365 1082 0 5 -356 574 -366 586 -2 2 -6 -2
-9 -10z"/>
<path d="M1385 1004 c-742 -322 -1359 -589 -1369 -593 -15 -6 41 -49 276 -209
l295 -201 922 392 923 392 144 365 c79 201 151 382 159 403 8 20 11 37 7 37
-4 0 -614 -264 -1357 -586z"/>
</g>
</svg>
