<?xml version="1.0" standalone="no"?>
<!DOCTYPE svg PUBLIC "-//W3C//DTD SVG 20010904//EN"
 "http://www.w3.org/TR/2001/REC-SVG-20010904/DTD/svg10.dtd">
<svg version="1.0" xmlns="http://www.w3.org/2000/svg"
 width="276.000000pt" height="275.000000pt" viewBox="0 0 276.000000 275.000000"
 preserveAspectRatio="xMidYMid meet">
<metadata>
Created by potrace 1.15, written by Peter Selinger 2001-2017
</metadata>
<g transform="translate(0.000000,275.000000) scale(0.100000,-0.100000)"
fill="#000000" stroke="none">
<path d="M901 2711 c104 -172 906 -1431 912 -1431 4 0 129 53 278 117 197 86
268 121 264 131 -3 8 -197 286 -432 618 l-427 604 -309 0 -309 0 23 -39z"/>
<path d="M887 2539 c-74 -182 -739 -1970 -735 -1975 5 -4 740 308 756 322 7 5
365 1069 365 1084 1 11 -284 475 -359 584 -13 19 -14 18 -27 -15z"/>
<path d="M1370 1005 c-750 -326 -1366 -597 -1367 -602 -5 -15 576 -406 595
-401 9 3 427 179 927 392 l911 387 149 377 c82 207 155 392 162 410 11 25 11
32 1 31 -7 -1 -627 -268 -1378 -594z"/>
</g>
</svg>
